<svg width="137" height="100" viewBox="0 0 137 100" fill="none" xmlns="http://www.w3.org/2000/svg">
<path d="M0 5C0 2.23858 2.23858 0 5 0H24C26.7614 0 29 2.23858 29 5V100H0V5Z" fill="#F3F3F3"/>
<path d="M0 40C0 37.2386 2.23858 35 5 35H24C26.7614 35 29 37.2386 29 40V100H0V40Z" fill="#FF5C00"/>
<path d="M36 5C36 2.23858 38.2386 0 41 0H60C62.7614 0 65 2.23858 65 5V100H36V5Z" fill="#F3F3F3"/>
<path d="M36 69C36 66.2386 38.2386 64 41 64H60C62.7614 64 65 66.2386 65 69V100H36V69Z" fill="#0066FF"/>
<path d="M72 5C72 2.23858 74.2386 0 77 0H96C98.7614 0 101 2.23858 101 5V100H72V5Z" fill="#F3F3F3"/>
<path d="M72 17C72 14.2386 74.2386 12 77 12H96C98.7614 12 101 14.2386 101 17V100H72V17Z" fill="#7000FF"/>
<path d="M108 5C108 2.23858 110.239 0 113 0H132C134.761 0 137 2.23858 137 5V100H108V5Z" fill="#F3F3F3"/>
<path d="M108 52C108 49.2386 110.239 47 113 47H132C134.761 47 137 49.2386 137 52V100H108V52Z" fill="#CACACA"/>
</svg>
