<svg width="61" height="35" viewBox="0 0 61 35" fill="none" xmlns="http://www.w3.org/2000/svg">
<path d="M1.8608 12V3.27273H5.2017C5.83239 3.27273 6.35653 3.37216 6.77415 3.57102C7.1946 3.76705 7.50852 4.03551 7.71591 4.37642C7.92614 4.71733 8.03125 5.10369 8.03125 5.53551C8.03125 5.89062 7.96307 6.1946 7.8267 6.44744C7.69034 6.69744 7.5071 6.90057 7.27699 7.05682C7.04688 7.21307 6.78977 7.32528 6.50568 7.39347V7.47869C6.81534 7.49574 7.11222 7.59091 7.39631 7.7642C7.68324 7.93466 7.91761 8.17614 8.09943 8.48864C8.28125 8.80114 8.37216 9.17898 8.37216 9.62216C8.37216 10.0739 8.26278 10.4801 8.04403 10.8409C7.82528 11.1989 7.49574 11.4815 7.0554 11.6889C6.61506 11.8963 6.06108 12 5.39347 12H1.8608ZM3.44176 10.679H5.14205C5.71591 10.679 6.12926 10.5696 6.3821 10.3509C6.63778 10.1293 6.76562 9.84517 6.76562 9.49858C6.76562 9.24006 6.7017 9.0071 6.57386 8.79972C6.44602 8.58949 6.2642 8.42472 6.02841 8.3054C5.79261 8.18324 5.51136 8.12216 5.18466 8.12216H3.44176V10.679ZM3.44176 6.98438H5.00568C5.27841 6.98438 5.52415 6.93466 5.7429 6.83523C5.96165 6.73295 6.13352 6.58949 6.25852 6.40483C6.38636 6.21733 6.45028 5.99574 6.45028 5.74006C6.45028 5.40199 6.33097 5.12358 6.09233 4.90483C5.85653 4.68608 5.50568 4.5767 5.03977 4.5767H3.44176V6.98438ZM9.67933 12V5.45455H11.1751V6.54545H11.2433C11.3626 6.16761 11.5671 5.87642 11.8569 5.67188C12.1495 5.46449 12.4833 5.3608 12.8583 5.3608C12.9435 5.3608 13.0387 5.36506 13.1438 5.37358C13.2518 5.37926 13.3413 5.3892 13.4123 5.40341V6.82244C13.3469 6.79972 13.2433 6.77983 13.1012 6.76278C12.962 6.7429 12.8271 6.73295 12.6964 6.73295C12.4151 6.73295 12.1623 6.79403 11.9379 6.91619C11.7163 7.03551 11.5415 7.2017 11.4137 7.41477C11.2859 7.62784 11.2219 7.87358 11.2219 8.15199V12H9.67933ZM16.2035 12.1321C15.7887 12.1321 15.4151 12.0582 15.0827 11.9105C14.7532 11.7599 14.4918 11.5384 14.2987 11.2457C14.1083 10.9531 14.0131 10.5923 14.0131 10.1634C14.0131 9.79403 14.0813 9.48864 14.2177 9.24716C14.354 9.00568 14.5401 8.8125 14.7759 8.66761C15.0117 8.52273 15.2773 8.41335 15.5728 8.33949C15.8711 8.26278 16.1793 8.20739 16.4975 8.1733C16.881 8.13352 17.1921 8.09801 17.4308 8.06676C17.6694 8.03267 17.8427 7.98153 17.9506 7.91335C18.0614 7.84233 18.1168 7.73295 18.1168 7.58523V7.55966C18.1168 7.23864 18.0217 6.99006 17.8313 6.81392C17.641 6.63778 17.3668 6.54972 17.0089 6.54972C16.631 6.54972 16.3313 6.6321 16.1097 6.79688C15.891 6.96165 15.7433 7.15625 15.6665 7.38068L14.2262 7.17614C14.3398 6.77841 14.5273 6.44602 14.7887 6.17898C15.0501 5.90909 15.3697 5.70739 15.7475 5.57386C16.1254 5.4375 16.543 5.36932 17.0004 5.36932C17.3157 5.36932 17.6296 5.40625 17.9421 5.48011C18.2546 5.55398 18.5401 5.67614 18.7987 5.84659C19.0572 6.0142 19.2646 6.2429 19.4208 6.53267C19.5799 6.82244 19.6594 7.18466 19.6594 7.61932V12H18.1765V11.1009H18.1254C18.0316 11.2827 17.8995 11.4531 17.729 11.6122C17.5614 11.7685 17.3498 11.8949 17.0941 11.9915C16.8413 12.0852 16.5444 12.1321 16.2035 12.1321ZM16.604 10.9986C16.9137 10.9986 17.1822 10.9375 17.4094 10.8153C17.6367 10.6903 17.8114 10.5256 17.9336 10.321C18.0586 10.1165 18.1211 9.89347 18.1211 9.65199V8.88068C18.0728 8.92045 17.9904 8.95739 17.8739 8.99148C17.7603 9.02557 17.6325 9.0554 17.4904 9.08097C17.3484 9.10653 17.2077 9.12926 17.0685 9.14915C16.9293 9.16903 16.8086 9.18608 16.7063 9.20028C16.4762 9.23153 16.2702 9.28267 16.0884 9.35369C15.9066 9.42472 15.7631 9.52415 15.658 9.65199C15.5529 9.77699 15.5004 9.93892 15.5004 10.1378C15.5004 10.4219 15.604 10.6364 15.8114 10.7812C16.0188 10.9261 16.283 10.9986 16.604 10.9986ZM22.7532 8.16477V12H21.2106V5.45455H22.685V6.56676H22.7617C22.9123 6.20028 23.1523 5.90909 23.4819 5.69318C23.8143 5.47727 24.2248 5.36932 24.7134 5.36932C25.1651 5.36932 25.5586 5.46591 25.8938 5.65909C26.2319 5.85227 26.4933 6.1321 26.6779 6.49858C26.8654 6.86506 26.9577 7.30966 26.9549 7.83239V12H25.4123V8.07102C25.4123 7.63352 25.2987 7.29119 25.0714 7.04403C24.8469 6.79687 24.5359 6.6733 24.1381 6.6733C23.8683 6.6733 23.6282 6.73295 23.418 6.85227C23.2106 6.96875 23.0472 7.13778 22.9279 7.35938C22.8114 7.58097 22.7532 7.84943 22.7532 8.16477ZM30.9521 12.1151C30.4379 12.1151 29.9776 11.983 29.5714 11.7188C29.1651 11.4545 28.8441 11.071 28.6083 10.5682C28.3725 10.0653 28.2546 9.45455 28.2546 8.7358C28.2546 8.00852 28.3739 7.39489 28.6126 6.89489C28.854 6.39205 29.1793 6.01278 29.5884 5.7571C29.9975 5.49858 30.4535 5.36932 30.9563 5.36932C31.3398 5.36932 31.6552 5.43466 31.9023 5.56534C32.1495 5.69318 32.3455 5.84801 32.4904 6.02983C32.6353 6.20881 32.7475 6.37784 32.8271 6.53693H32.891V3.27273H34.4379V12H32.9208V10.9688H32.8271C32.7475 11.1278 32.6325 11.2969 32.4819 11.4759C32.3313 11.652 32.1325 11.8026 31.8853 11.9276C31.6381 12.0526 31.3271 12.1151 30.9521 12.1151ZM31.3825 10.8494C31.7092 10.8494 31.9876 10.7614 32.2177 10.5852C32.4478 10.4062 32.6225 10.1577 32.7418 9.83949C32.8612 9.52131 32.9208 9.15057 32.9208 8.72727C32.9208 8.30398 32.8612 7.93608 32.7418 7.62358C32.6254 7.31108 32.4521 7.06818 32.2219 6.89489C31.9947 6.72159 31.7148 6.63494 31.3825 6.63494C31.0387 6.63494 30.7518 6.72443 30.5217 6.90341C30.2915 7.08239 30.1183 7.32955 30.0018 7.64489C29.8853 7.96023 29.8271 8.32102 29.8271 8.72727C29.8271 9.13636 29.8853 9.50142 30.0018 9.82244C30.1211 10.1406 30.2958 10.392 30.5259 10.5767C30.7589 10.7585 31.0444 10.8494 31.3825 10.8494ZM36.0817 12V5.45455H37.6243V12H36.0817ZM36.8572 4.52557C36.6129 4.52557 36.4027 4.4446 36.2266 4.28267C36.0504 4.1179 35.9624 3.92045 35.9624 3.69034C35.9624 3.45739 36.0504 3.25994 36.2266 3.09801C36.4027 2.93324 36.6129 2.85085 36.8572 2.85085C37.1044 2.85085 37.3146 2.93324 37.4879 3.09801C37.6641 3.25994 37.7521 3.45739 37.7521 3.69034C37.7521 3.92045 37.6641 4.1179 37.4879 4.28267C37.3146 4.4446 37.1044 4.52557 36.8572 4.52557ZM40.7532 8.16477V12H39.2106V5.45455H40.685V6.56676H40.7617C40.9123 6.20028 41.1523 5.90909 41.4819 5.69318C41.8143 5.47727 42.2248 5.36932 42.7134 5.36932C43.1651 5.36932 43.5586 5.46591 43.8938 5.65909C44.2319 5.85227 44.4933 6.1321 44.6779 6.49858C44.8654 6.86506 44.9577 7.30966 44.9549 7.83239V12H43.4123V8.07102C43.4123 7.63352 43.2987 7.29119 43.0714 7.04403C42.8469 6.79687 42.5359 6.6733 42.1381 6.6733C41.8683 6.6733 41.6282 6.73295 41.418 6.85227C41.2106 6.96875 41.0472 7.13778 40.9279 7.35938C40.8114 7.58097 40.7532 7.84943 40.7532 8.16477ZM49.3697 14.5909C48.8157 14.5909 48.3398 14.5156 47.9421 14.3651C47.5444 14.2173 47.2248 14.0185 46.9833 13.7685C46.7418 13.5185 46.5742 13.2415 46.4805 12.9375L47.8697 12.6009C47.9322 12.7287 48.0231 12.8551 48.1424 12.9801C48.2617 13.108 48.4222 13.2131 48.6239 13.2955C48.8285 13.3807 49.0856 13.4233 49.3952 13.4233C49.8327 13.4233 50.195 13.3168 50.4819 13.1037C50.7688 12.8935 50.9123 12.5469 50.9123 12.0639V10.8239H50.8356C50.756 10.983 50.6396 11.1463 50.4862 11.3139C50.3356 11.4815 50.1353 11.6222 49.8853 11.7358C49.6381 11.8494 49.3271 11.9062 48.9521 11.9062C48.4492 11.9062 47.9933 11.7884 47.5842 11.5526C47.1779 11.3139 46.854 10.9588 46.6126 10.4872C46.3739 10.0128 46.2546 9.41903 46.2546 8.70597C46.2546 7.98722 46.3739 7.38068 46.6126 6.88636C46.854 6.3892 47.1793 6.01278 47.5884 5.7571C47.9975 5.49858 48.4535 5.36932 48.9563 5.36932C49.3398 5.36932 49.6552 5.43466 49.9023 5.56534C50.1523 5.69318 50.3512 5.84801 50.4989 6.02983C50.6467 6.20881 50.7589 6.37784 50.8356 6.53693H50.9208V5.45455H52.4421V12.1065C52.4421 12.6662 52.3086 13.1293 52.0415 13.4957C51.7745 13.8622 51.4094 14.1364 50.9464 14.3182C50.4833 14.5 49.9577 14.5909 49.3697 14.5909ZM49.3825 10.696C49.7092 10.696 49.9876 10.6165 50.2177 10.4574C50.4478 10.2983 50.6225 10.0696 50.7418 9.77131C50.8612 9.47301 50.9208 9.11506 50.9208 8.69744C50.9208 8.28551 50.8612 7.92472 50.7418 7.61506C50.6254 7.3054 50.4521 7.06534 50.2219 6.89489C49.9947 6.72159 49.7148 6.63494 49.3825 6.63494C49.0387 6.63494 48.7518 6.72443 48.5217 6.90341C48.2915 7.08239 48.1183 7.32812 48.0018 7.64062C47.8853 7.95028 47.8271 8.30256 47.8271 8.69744C47.8271 9.09801 47.8853 9.44886 48.0018 9.75C48.1211 10.0483 48.2958 10.2812 48.5259 10.4489C48.7589 10.6136 49.0444 10.696 49.3825 10.696Z" fill="#CBCBCB"/>
<path d="M5.60369 25.6719C5.56392 25.2997 5.39631 25.0099 5.10085 24.8026C4.80824 24.5952 4.42756 24.4915 3.95881 24.4915C3.62926 24.4915 3.34659 24.5412 3.1108 24.6406C2.875 24.7401 2.6946 24.875 2.5696 25.0455C2.4446 25.2159 2.38068 25.4105 2.37784 25.6293C2.37784 25.8111 2.41903 25.9687 2.50142 26.1023C2.58665 26.2358 2.7017 26.3494 2.84659 26.4432C2.99148 26.5341 3.15199 26.6108 3.32812 26.6733C3.50426 26.7358 3.68182 26.7884 3.8608 26.831L4.67898 27.0355C5.00852 27.1122 5.32528 27.2159 5.62926 27.3466C5.93608 27.4773 6.21023 27.642 6.4517 27.8409C6.69602 28.0398 6.8892 28.2798 7.03125 28.5611C7.1733 28.8423 7.24432 29.1719 7.24432 29.5497C7.24432 30.0611 7.11364 30.5114 6.85227 30.9006C6.59091 31.2869 6.21307 31.5895 5.71875 31.8082C5.22727 32.0241 4.6321 32.1321 3.93324 32.1321C3.25426 32.1321 2.66477 32.027 2.16477 31.8168C1.66761 31.6065 1.27841 31.2997 0.997159 30.8963C0.71875 30.4929 0.568182 30.0014 0.545455 29.4219H2.10085C2.12358 29.7259 2.21733 29.9787 2.3821 30.1804C2.54688 30.3821 2.76136 30.5327 3.02557 30.6321C3.29261 30.7315 3.59091 30.7812 3.92045 30.7812C4.2642 30.7812 4.56534 30.7301 4.82386 30.6278C5.08523 30.5227 5.28977 30.3778 5.4375 30.1932C5.58523 30.0057 5.66051 29.7869 5.66335 29.5369C5.66051 29.3097 5.59375 29.1222 5.46307 28.9744C5.33239 28.8239 5.14915 28.6989 4.91335 28.5994C4.6804 28.4972 4.40767 28.4062 4.09517 28.3267L3.10227 28.071C2.38352 27.8864 1.81534 27.6065 1.39773 27.2315C0.982955 26.8537 0.775568 26.3523 0.775568 25.7273C0.775568 25.2131 0.914773 24.7628 1.19318 24.3764C1.47443 23.9901 1.85653 23.6903 2.33949 23.4773C2.82244 23.2614 3.36932 23.1534 3.98011 23.1534C4.59943 23.1534 5.14205 23.2614 5.60795 23.4773C6.0767 23.6903 6.4446 23.9872 6.71165 24.3679C6.97869 24.7457 7.11648 25.1804 7.125 25.6719H5.60369ZM11.4407 32.1278C10.8015 32.1278 10.2475 31.9872 9.77876 31.706C9.31001 31.4247 8.94638 31.0312 8.68786 30.5256C8.43217 30.0199 8.30433 29.429 8.30433 28.7528C8.30433 28.0767 8.43217 27.4844 8.68786 26.9759C8.94638 26.4673 9.31001 26.0724 9.77876 25.7912C10.2475 25.5099 10.8015 25.3693 11.4407 25.3693C12.0799 25.3693 12.6339 25.5099 13.1026 25.7912C13.5714 26.0724 13.9336 26.4673 14.1893 26.9759C14.4478 27.4844 14.5771 28.0767 14.5771 28.7528C14.5771 29.429 14.4478 30.0199 14.1893 30.5256C13.9336 31.0312 13.5714 31.4247 13.1026 31.706C12.6339 31.9872 12.0799 32.1278 11.4407 32.1278ZM11.4492 30.892C11.7958 30.892 12.0856 30.7969 12.3185 30.6065C12.5515 30.4134 12.7248 30.1548 12.8384 29.831C12.9549 29.5071 13.0131 29.1463 13.0131 28.7486C13.0131 28.348 12.9549 27.9858 12.8384 27.6619C12.7248 27.3352 12.5515 27.0753 12.3185 26.8821C12.0856 26.6889 11.7958 26.5923 11.4492 26.5923C11.0941 26.5923 10.7987 26.6889 10.5629 26.8821C10.3299 27.0753 10.1552 27.3352 10.0387 27.6619C9.92507 27.9858 9.86825 28.348 9.86825 28.7486C9.86825 29.1463 9.92507 29.5071 10.0387 29.831C10.1552 30.1548 10.3299 30.4134 10.5629 30.6065C10.7987 30.7969 11.0941 30.892 11.4492 30.892ZM18.7415 32.1278C18.0881 32.1278 17.527 31.9844 17.0582 31.6974C16.5923 31.4105 16.233 31.0142 15.9801 30.5085C15.7301 30 15.6051 29.4148 15.6051 28.7528C15.6051 28.0881 15.733 27.5014 15.9886 26.9929C16.2443 26.4815 16.6051 26.0838 17.071 25.7997C17.5398 25.5128 18.0938 25.3693 18.733 25.3693C19.2642 25.3693 19.7344 25.4673 20.1435 25.6634C20.5554 25.8565 20.8835 26.1307 21.1278 26.4858C21.3722 26.8381 21.5114 27.25 21.5455 27.7216H20.071C20.0114 27.4062 19.8693 27.1435 19.6449 26.9332C19.4233 26.7202 19.1264 26.6136 18.7543 26.6136C18.4389 26.6136 18.1619 26.6989 17.9233 26.8693C17.6847 27.0369 17.4986 27.2784 17.3651 27.5938C17.2344 27.9091 17.169 28.2869 17.169 28.7273C17.169 29.1733 17.2344 29.5568 17.3651 29.8778C17.4957 30.196 17.679 30.4418 17.9148 30.6151C18.1534 30.7855 18.4332 30.8707 18.7543 30.8707C18.9815 30.8707 19.1847 30.8281 19.3636 30.7429C19.5455 30.6548 19.6974 30.5284 19.8196 30.3636C19.9418 30.1989 20.0256 29.9986 20.071 29.7628H21.5455C21.5085 30.2259 21.3722 30.6364 21.1364 30.9943C20.9006 31.3494 20.5795 31.6278 20.1733 31.8295C19.767 32.0284 19.2898 32.1278 18.7415 32.1278ZM22.8121 32V25.4545H24.3548V32H22.8121ZM23.5877 24.5256C23.3434 24.5256 23.1332 24.4446 22.957 24.2827C22.7809 24.1179 22.6928 23.9205 22.6928 23.6903C22.6928 23.4574 22.7809 23.2599 22.957 23.098C23.1332 22.9332 23.3434 22.8509 23.5877 22.8509C23.8349 22.8509 24.0451 22.9332 24.2184 23.098C24.3945 23.2599 24.4826 23.4574 24.4826 23.6903C24.4826 23.9205 24.3945 24.1179 24.2184 24.2827C24.0451 24.4446 23.8349 24.5256 23.5877 24.5256ZM27.8246 32.1321C27.4098 32.1321 27.0362 32.0582 26.7038 31.9105C26.3743 31.7599 26.1129 31.5384 25.9197 31.2457C25.7294 30.9531 25.6342 30.5923 25.6342 30.1634C25.6342 29.794 25.7024 29.4886 25.8388 29.2472C25.9751 29.0057 26.1612 28.8125 26.397 28.6676C26.6328 28.5227 26.8984 28.4134 27.1939 28.3395C27.4922 28.2628 27.8004 28.2074 28.1186 28.1733C28.5021 28.1335 28.8132 28.098 29.0518 28.0668C29.2905 28.0327 29.4638 27.9815 29.5717 27.9134C29.6825 27.8423 29.7379 27.733 29.7379 27.5852V27.5597C29.7379 27.2386 29.6428 26.9901 29.4524 26.8139C29.2621 26.6378 28.9879 26.5497 28.63 26.5497C28.2521 26.5497 27.9524 26.6321 27.7308 26.7969C27.5121 26.9616 27.3643 27.1562 27.2876 27.3807L25.8473 27.1761C25.9609 26.7784 26.1484 26.446 26.4098 26.179C26.6712 25.9091 26.9908 25.7074 27.3686 25.5739C27.7464 25.4375 28.1641 25.3693 28.6214 25.3693C28.9368 25.3693 29.2507 25.4062 29.5632 25.4801C29.8757 25.554 30.1612 25.6761 30.4197 25.8466C30.6783 26.0142 30.8857 26.2429 31.0419 26.5327C31.201 26.8224 31.2805 27.1847 31.2805 27.6193V32H29.7976V31.1009H29.7464C29.6527 31.2827 29.5206 31.4531 29.3501 31.6122C29.1825 31.7685 28.9709 31.8949 28.7152 31.9915C28.4624 32.0852 28.1655 32.1321 27.8246 32.1321ZM28.2251 30.9986C28.5348 30.9986 28.8033 30.9375 29.0305 30.8153C29.2578 30.6903 29.4325 30.5256 29.5547 30.321C29.6797 30.1165 29.7422 29.8935 29.7422 29.652V28.8807C29.6939 28.9205 29.6115 28.9574 29.495 28.9915C29.3814 29.0256 29.2536 29.0554 29.1115 29.081C28.9695 29.1065 28.8288 29.1293 28.6896 29.1491C28.5504 29.169 28.4297 29.1861 28.3274 29.2003C28.0973 29.2315 27.8913 29.2827 27.7095 29.3537C27.5277 29.4247 27.3842 29.5241 27.2791 29.652C27.174 29.777 27.1214 29.9389 27.1214 30.1378C27.1214 30.4219 27.2251 30.6364 27.4325 30.7812C27.6399 30.9261 27.9041 30.9986 28.2251 30.9986ZM34.3743 23.2727V32H32.8317V23.2727H34.3743ZM40.1261 32H38.4386L41.511 23.2727H43.4627L46.5394 32H44.8519L42.521 25.0625H42.4528L40.1261 32ZM40.1815 28.5781H44.7837V29.848H40.1815V28.5781ZM49.8505 32.1151C49.3363 32.1151 48.8761 31.983 48.4698 31.7188C48.0636 31.4545 47.7425 31.071 47.5067 30.5682C47.271 30.0653 47.1531 29.4545 47.1531 28.7358C47.1531 28.0085 47.2724 27.3949 47.511 26.8949C47.7525 26.392 48.0778 26.0128 48.4869 25.7571C48.896 25.4986 49.3519 25.3693 49.8548 25.3693C50.2383 25.3693 50.5536 25.4347 50.8008 25.5653C51.0479 25.6932 51.244 25.848 51.3888 26.0298C51.5337 26.2088 51.646 26.3778 51.7255 26.5369H51.7894V23.2727H53.3363V32H51.8192V30.9688H51.7255C51.646 31.1278 51.5309 31.2969 51.3803 31.4759C51.2298 31.652 51.0309 31.8026 50.7837 31.9276C50.5366 32.0526 50.2255 32.1151 49.8505 32.1151ZM50.2809 30.8494C50.6076 30.8494 50.886 30.7614 51.1161 30.5852C51.3462 30.4062 51.521 30.1577 51.6403 29.8395C51.7596 29.5213 51.8192 29.1506 51.8192 28.7273C51.8192 28.304 51.7596 27.9361 51.6403 27.6236C51.5238 27.3111 51.3505 27.0682 51.1204 26.8949C50.8931 26.7216 50.6133 26.6349 50.2809 26.6349C49.9371 26.6349 49.6502 26.7244 49.4201 26.9034C49.19 27.0824 49.0167 27.3295 48.9002 27.6449C48.7837 27.9602 48.7255 28.321 48.7255 28.7273C48.7255 29.1364 48.7837 29.5014 48.9002 29.8224C49.0195 30.1406 49.1942 30.392 49.4244 30.5767C49.6573 30.7585 49.9428 30.8494 50.2809 30.8494ZM60.1534 27.1847L58.7472 27.3381C58.7074 27.196 58.6378 27.0625 58.5384 26.9375C58.4418 26.8125 58.3111 26.7116 58.1463 26.6349C57.9815 26.5582 57.7798 26.5199 57.5412 26.5199C57.2202 26.5199 56.9503 26.5895 56.7315 26.7287C56.5156 26.8679 56.4091 27.0483 56.4119 27.2699C56.4091 27.4602 56.4787 27.6151 56.6207 27.7344C56.7656 27.8537 57.0043 27.9517 57.3366 28.0284L58.4531 28.267C59.0724 28.4006 59.5327 28.6122 59.8338 28.902C60.1378 29.1918 60.2912 29.571 60.294 30.0398C60.2912 30.4517 60.1705 30.8153 59.9318 31.1307C59.696 31.4432 59.3679 31.6875 58.9474 31.8636C58.527 32.0398 58.044 32.1278 57.4986 32.1278C56.6974 32.1278 56.0526 31.9602 55.5639 31.625C55.0753 31.2869 54.7841 30.8168 54.6903 30.2145L56.1946 30.0696C56.2628 30.3651 56.4077 30.5881 56.6293 30.7386C56.8509 30.8892 57.1392 30.9645 57.4943 30.9645C57.8608 30.9645 58.1548 30.8892 58.3764 30.7386C58.6009 30.5881 58.7131 30.402 58.7131 30.1804C58.7131 29.9929 58.6406 29.8381 58.4957 29.7159C58.3537 29.5937 58.1321 29.5 57.831 29.4347L56.7145 29.2003C56.0866 29.0696 55.6222 28.8494 55.321 28.5398C55.0199 28.2273 54.8707 27.8324 54.8736 27.3551C54.8707 26.9517 54.9801 26.6023 55.2017 26.3068C55.4261 26.0085 55.7372 25.7784 56.1349 25.6165C56.5355 25.4517 56.9972 25.3693 57.5199 25.3693C58.2869 25.3693 58.8906 25.5327 59.331 25.8594C59.7741 26.1861 60.0483 26.6278 60.1534 27.1847Z" fill="#9C9C9C"/>
</svg>
