<svg width="15" height="15" viewBox="0 0 15 15" fill="none" xmlns="http://www.w3.org/2000/svg">
<path d="M14.3431 7.98884L13.058 6.39603L12.263 7.08671L13.5481 8.67953L14.3431 7.98884ZM13.058 6.39603C11.8653 4.91772 12.3964 2.54482 14.1719 1.41953L13.7193 0.580471C11.3981 2.05166 10.7037 5.15398 12.263 7.08671L13.058 6.39603Z" fill="#7000FF"/>
<path d="M10.7328 10.0643L10.5008 9.72148L11.2464 9.09689L11.4785 9.43967L10.7328 10.0643ZM10.5008 9.72148C8.40722 6.62896 5.66033 4.16276 2.51667 2.55324L2.89138 1.59561C6.18109 3.27991 9.0556 5.86068 11.2464 9.09689L10.5008 9.72148Z" fill="#7000FF"/>
<path d="M8.136 12.6252L7.08184 11.5296L7.72262 10.7942L8.77678 11.8897L8.136 12.6252ZM7.08184 11.5296C5.44754 9.83123 2.96635 9.67447 1.31664 11.1654L0.683359 10.3494C2.69764 8.52901 5.72715 8.72041 7.72262 10.7942L7.08184 11.5296Z" fill="#7000FF"/>
</svg>
