<svg width="323" height="89" viewBox="0 0 323 89" fill="none" xmlns="http://www.w3.org/2000/svg">
<path d="M115.494 74H111.885V63.8182H115.524C116.548 63.8182 117.43 64.022 118.169 64.4297C118.908 64.834 119.477 65.4157 119.874 66.1747C120.275 66.9337 120.476 67.8419 120.476 68.8991C120.476 69.9598 120.275 70.8712 119.874 71.6335C119.477 72.3958 118.905 72.9808 118.159 73.3885C117.417 73.7962 116.528 74 115.494 74ZM114.038 72.1555H115.405C116.041 72.1555 116.576 72.0429 117.011 71.8175C117.448 71.5888 117.776 71.2358 117.995 70.7585C118.217 70.2779 118.328 69.6581 118.328 68.8991C118.328 68.1468 118.217 67.532 117.995 67.0547C117.776 66.5774 117.45 66.2261 117.016 66.0007C116.581 65.7753 116.046 65.6626 115.41 65.6626H114.038V72.1555ZM128.423 63.8182V74H126.27V63.8182H128.423ZM138.004 74H134.394V63.8182H138.034C139.058 63.8182 139.939 64.022 140.678 64.4297C141.418 64.834 141.986 65.4157 142.384 66.1747C142.785 66.9337 142.985 67.8419 142.985 68.8991C142.985 69.9598 142.785 70.8712 142.384 71.6335C141.986 72.3958 141.414 72.9808 140.668 73.3885C139.926 73.7962 139.038 74 138.004 74ZM136.547 72.1555H137.914C138.551 72.1555 139.086 72.0429 139.52 71.8175C139.958 71.5888 140.286 71.2358 140.504 70.7585C140.726 70.2779 140.837 69.6581 140.837 68.8991C140.837 68.1468 140.726 67.532 140.504 67.0547C140.286 66.5774 139.959 66.2261 139.525 66.0007C139.091 65.7753 138.556 65.6626 137.919 65.6626H136.547V72.1555ZM149.961 74H147.654L151.169 63.8182H153.943L157.453 74H155.146L152.596 66.1449H152.516L149.961 74ZM149.816 69.9979H155.265V71.6783H149.816V69.9979ZM168.169 66.7464C168.13 66.3454 167.959 66.0339 167.657 65.8118C167.356 65.5897 166.946 65.4787 166.429 65.4787C166.078 65.4787 165.781 65.5284 165.539 65.6278C165.297 65.724 165.112 65.8582 164.983 66.0305C164.857 66.2029 164.794 66.3984 164.794 66.6172C164.787 66.7995 164.825 66.9586 164.908 67.0945C164.994 67.2304 165.112 67.348 165.261 67.4474C165.41 67.5436 165.582 67.6281 165.778 67.701C165.974 67.7706 166.182 67.8303 166.404 67.88L167.319 68.0987C167.763 68.1982 168.171 68.3307 168.542 68.4964C168.913 68.6622 169.235 68.866 169.507 69.108C169.778 69.3499 169.989 69.6349 170.138 69.9631C170.291 70.2912 170.368 70.6674 170.372 71.0916C170.368 71.7147 170.209 72.255 169.894 72.7124C169.583 73.1664 169.132 73.5194 168.542 73.7713C167.956 74.0199 167.248 74.1442 166.419 74.1442C165.597 74.1442 164.881 74.0182 164.272 73.7663C163.665 73.5144 163.191 73.1416 162.85 72.6477C162.512 72.1506 162.334 71.5357 162.318 70.8033H164.401C164.424 71.1446 164.522 71.4297 164.694 71.6584C164.87 71.8838 165.104 72.0545 165.395 72.1705C165.69 72.2831 166.023 72.3395 166.394 72.3395C166.759 72.3395 167.076 72.2865 167.344 72.1804C167.616 72.0743 167.826 71.9268 167.975 71.7379C168.125 71.549 168.199 71.3319 168.199 71.0866C168.199 70.858 168.131 70.6657 167.995 70.5099C167.863 70.3542 167.667 70.2216 167.409 70.1122C167.153 70.0028 166.84 69.9034 166.469 69.8139L165.36 69.5355C164.502 69.3267 163.824 69.0002 163.327 68.5561C162.83 68.112 162.583 67.5137 162.586 66.7614C162.583 66.1449 162.747 65.6063 163.078 65.1456C163.413 64.6849 163.872 64.3253 164.456 64.0668C165.039 63.8082 165.702 63.679 166.444 63.679C167.2 63.679 167.859 63.8082 168.423 64.0668C168.99 64.3253 169.43 64.6849 169.745 65.1456C170.06 65.6063 170.223 66.1399 170.233 66.7464H168.169ZM185.376 68.9091C185.376 70.0194 185.166 70.964 184.745 71.7429C184.327 72.5218 183.757 73.1167 183.035 73.5277C182.315 73.9354 181.507 74.1392 180.608 74.1392C179.704 74.1392 178.892 73.9337 178.172 73.5227C177.453 73.1117 176.885 72.5168 176.467 71.7379C176.05 70.959 175.841 70.0161 175.841 68.9091C175.841 67.7988 176.05 66.8542 176.467 66.0753C176.885 65.2964 177.453 64.7031 178.172 64.2955C178.892 63.8845 179.704 63.679 180.608 63.679C181.507 63.679 182.315 63.8845 183.035 64.2955C183.757 64.7031 184.327 65.2964 184.745 66.0753C185.166 66.8542 185.376 67.7988 185.376 68.9091ZM183.194 68.9091C183.194 68.1899 183.086 67.5833 182.871 67.0895C182.658 66.5956 182.358 66.2211 181.971 65.9659C181.583 65.7107 181.129 65.5831 180.608 65.5831C180.088 65.5831 179.634 65.7107 179.246 65.9659C178.858 66.2211 178.557 66.5956 178.341 67.0895C178.129 67.5833 178.023 68.1899 178.023 68.9091C178.023 69.6283 178.129 70.2348 178.341 70.7287C178.557 71.2225 178.858 71.5971 179.246 71.8523C179.634 72.1075 180.088 72.2351 180.608 72.2351C181.129 72.2351 181.583 72.1075 181.971 71.8523C182.358 71.5971 182.658 71.2225 182.871 70.7287C183.086 70.2348 183.194 69.6283 183.194 68.9091ZM191.171 74V63.8182H197.912V65.593H193.324V68.0192H197.465V69.794H193.324V74H191.171ZM203.56 74V63.8182H210.302V65.593H205.713V68.0192H209.854V69.794H205.713V74H203.56Z" fill="#262626"/>
<path d="M33.8409 51H23.5284V21.9091H33.9261C36.8523 21.9091 39.3712 22.4915 41.483 23.6562C43.5947 24.8116 45.2188 26.4735 46.3551 28.642C47.5009 30.8106 48.0739 33.4053 48.0739 36.4261C48.0739 39.4564 47.5009 42.0606 46.3551 44.2386C45.2188 46.4167 43.5852 48.0881 41.4545 49.2528C39.3333 50.4176 36.7955 51 33.8409 51ZM29.679 45.7301H33.5852C35.4034 45.7301 36.9328 45.4081 38.1733 44.7642C39.4233 44.1108 40.3608 43.1023 40.9858 41.7386C41.6203 40.3655 41.9375 38.5947 41.9375 36.4261C41.9375 34.2765 41.6203 32.5199 40.9858 31.1562C40.3608 29.7926 39.428 28.7888 38.1875 28.1449C36.947 27.5009 35.4176 27.179 33.5994 27.179H29.679V45.7301Z" fill="#7000FF"/>
<path d="M61.8878 21.9091H69.473L77.4844 41.4545H77.8253L85.8366 21.9091H93.4219V51H87.456V32.0653H87.2145L79.6861 50.858H75.6236L68.0952 31.9943H67.8537V51H61.8878V21.9091ZM103.504 51H96.9126L106.955 21.9091H114.881L124.91 51H118.319L111.032 28.5568H110.805L103.504 51ZM103.092 39.5653H118.66V44.3665H103.092V39.5653ZM128.411 51V21.9091H139.888C142.085 21.9091 143.96 22.3021 145.513 23.0881C147.076 23.8646 148.264 24.9678 149.079 26.3977C149.903 27.8182 150.315 29.4896 150.315 31.4119C150.315 33.3437 149.898 35.0057 149.065 36.3977C148.231 37.7803 147.024 38.8409 145.442 39.5795C143.871 40.3182 141.967 40.6875 139.732 40.6875H132.048V35.7443H138.738C139.912 35.7443 140.888 35.5833 141.664 35.2614C142.441 34.9394 143.018 34.4564 143.397 33.8125C143.785 33.1686 143.979 32.3684 143.979 31.4119C143.979 30.446 143.785 29.6316 143.397 28.9688C143.018 28.3059 142.436 27.804 141.65 27.4631C140.873 27.1127 139.893 26.9375 138.71 26.9375H134.562V51H128.411ZM144.121 37.7614L151.352 51H144.562L137.488 37.7614H144.121ZM154.661 51V21.9091H160.812V34.7358H161.195L171.664 21.9091H179.036L168.241 34.9347L179.164 51H171.806L163.837 39.0398L160.812 42.733V51H154.661ZM182.239 51V21.9091H201.842V26.9801H188.39V33.9119H200.833V38.983H188.39V45.929H201.898V51H182.239ZM205.624 26.9801V21.9091H229.516V26.9801H220.609V51H214.53V26.9801H205.624ZM239.601 21.9091V51H233.45V21.9091H239.601ZM268.994 21.9091V51H263.681L251.025 32.6903H250.812V51H244.661V21.9091H250.059L262.616 40.2045H262.871V21.9091H268.994ZM293.365 31.3125C293.166 30.6212 292.887 30.0104 292.527 29.4801C292.167 28.9403 291.727 28.4858 291.206 28.1165C290.695 27.7377 290.107 27.4489 289.445 27.25C288.791 27.0511 288.067 26.9517 287.271 26.9517C285.785 26.9517 284.478 27.321 283.351 28.0597C282.233 28.7983 281.362 29.8731 280.737 31.2841C280.112 32.6856 279.8 34.3996 279.8 36.4261C279.8 38.4527 280.107 40.1761 280.723 41.5966C281.339 43.017 282.21 44.1013 283.337 44.8494C284.464 45.5881 285.794 45.9574 287.328 45.9574C288.72 45.9574 289.909 45.7112 290.893 45.2188C291.888 44.7169 292.645 44.0114 293.166 43.1023C293.696 42.1932 293.962 41.1184 293.962 39.8778L295.212 40.0625H287.712V35.4318H299.885V39.0966C299.885 41.6534 299.345 43.8504 298.266 45.6875C297.186 47.5152 295.699 48.9261 293.805 49.9205C291.911 50.9053 289.743 51.3977 287.3 51.3977C284.572 51.3977 282.177 50.7964 280.112 49.5938C278.048 48.3816 276.438 46.6629 275.283 44.4375C274.137 42.2027 273.564 39.5511 273.564 36.483C273.564 34.125 273.905 32.0227 274.587 30.1761C275.278 28.3201 276.244 26.7481 277.484 25.4602C278.725 24.1723 280.169 23.1922 281.817 22.5199C283.464 21.8475 285.25 21.5114 287.172 21.5114C288.82 21.5114 290.354 21.7528 291.774 22.2358C293.195 22.7093 294.454 23.3816 295.553 24.2528C296.661 25.1241 297.565 26.161 298.266 27.3636C298.966 28.5568 299.416 29.8731 299.615 31.3125H293.365Z" fill="#262626"/>
</svg>
